<svg width="27" height="27" viewBox="0 0 27 27" fill="none" xmlns="http://www.w3.org/2000/svg">
<path d="M1.33611 1.06999C1.33765 1.08394 1.3393 1.10053 1.34062 1.11402C1.344 1.14854 1.34898 1.20113 1.35487 1.26413C1.36672 1.39095 1.38295 1.56718 1.3991 1.74289L1.42585 2.03369L1.43501 2.0424L1.46066 2.40158C1.68198 4.10202 2.14695 5.97643 2.7421 7.87565L2.7423 7.87628C3.05781 8.88551 3.37016 9.89372 3.68211 10.9007C5.01501 15.203 6.34067 19.482 7.8751 23.7168L7.88989 23.7563L7.89453 23.7686L7.897 23.771C7.89991 23.7738 7.90136 23.7743 7.90206 23.7746L7.9021 23.7746C7.9035 23.7751 7.90631 23.7759 7.91036 23.7758C7.91443 23.7757 7.91804 23.7748 7.92076 23.7736L1.33611 1.06999ZM1.33611 1.06999C1.67706 1.13049 2.08653 1.22894 2.54083 1.36091C7.65435 2.86003 12.7188 4.61087 17.7824 6.43441C18.1789 6.57859 18.5743 6.72428 18.9721 6.87081L18.9728 6.87107C19.3701 7.01746 19.7698 7.1647 20.1711 7.31065L20.1944 7.31912L20.2181 7.32642C21.2608 7.64812 22.298 7.9809 23.3296 8.32476L23.3296 8.32478L23.3354 8.32668C23.3429 8.32914 23.3519 8.33465 23.359 8.34892C23.3625 8.35587 23.3641 8.3623 23.3645 8.36714C23.3648 8.37117 23.3645 8.37512 23.3627 8.3805L23.3626 8.38046L23.3602 8.38782C23.3581 8.39108 23.3535 8.39764 23.3452 8.40695L23.3408 8.41136L23.3408 8.41133L23.3351 8.41707C21.6238 10.1561 19.883 11.8581 18.1275 13.5467L17.409 14.2379L18.0979 14.9585C19.0049 15.9072 19.912 16.8574 20.8193 17.8078L20.8283 17.8172C21.7382 18.7704 22.6483 19.7238 23.5585 20.6759C24.3072 21.4638 25.0301 22.2604 25.6977 23.0509C25.2436 23.4049 24.7503 23.7601 24.2833 24.0962L24.2431 24.1252L24.1998 24.1563C23.6435 24.5568 23.0577 24.9785 22.7433 25.2929C22.6171 25.4191 22.5321 25.5077 22.4751 25.5736C22.4659 25.5843 22.4514 25.6011 22.434 25.623C22.4018 25.6513 22.3564 25.691 22.2921 25.7472L22.2669 25.7692L22.2433 25.7929C22.193 25.8431 22.1524 25.8829 22.12 25.914C21.8232 25.752 21.4085 25.4395 20.9392 25.0144L1.33611 1.06999ZM8.50198 23.1669C8.31058 23.368 8.12062 23.5677 7.92949 23.7671L20.9386 25.0138C18.7215 23.0018 16.5677 20.9092 14.4422 18.7726L13.743 18.0697L13.0341 18.7628C12.2828 19.4974 11.5259 20.232 10.7691 20.9611C10.4947 21.2216 10.2201 21.481 9.94437 21.7414L9.943 21.7427C9.66717 22.0031 9.39023 22.2647 9.11313 22.5278L9.09603 22.5441L9.0797 22.5611C8.88595 22.7633 8.69381 22.9652 8.50312 23.1657L8.50198 23.1669ZM22.2004 26.2735C22.2004 26.2779 22.2001 26.2665 22.2008 26.2457L22.2004 26.2657L22.2004 26.2714L22.2004 26.273V26.2735ZM23.0655 25.9489C23.0639 25.948 23.0622 25.947 23.0604 25.9461C23.1024 25.9686 23.1243 25.9841 23.1167 25.9794L23.1163 25.9791C23.1123 25.9765 23.0919 25.9635 23.0655 25.9489ZM0.999647 0.327272C0.999668 0.32733 0.999747 0.328861 0.999819 0.33169L0.999647 0.327272Z" fill="white" stroke="black" stroke-width="2"/>
</svg>
